<svg width="393" height="44" viewBox="0 0 393 44" fill="none" xmlns="http://www.w3.org/2000/svg">
<g clip-path="url(#clip0_2384_7270)">
<path opacity="0.35" d="M356.667 17.8333H373.334C374.53 17.8333 375.5 18.8033 375.5 19.9999V25.9999C375.5 27.1965 374.53 28.1666 373.334 28.1666H356.667C355.47 28.1666 354.5 27.1965 354.5 25.9999V19.9999C354.5 18.8033 355.47 17.8333 356.667 17.8333Z" stroke="black"/>
<path opacity="0.4" d="M377 21V25C377.805 24.6612 378.328 23.8731 378.328 23C378.328 22.1269 377.805 21.3388 377 21" fill="black"/>
<path d="M356 20.4333C356 19.8257 356.493 19.3333 357.1 19.3333H372.9C373.508 19.3333 374 19.8257 374 20.4333V25.5666C374 26.1741 373.508 26.6666 372.9 26.6666H357.1C356.493 26.6666 356 26.1741 356 25.5666V20.4333Z" fill="black"/>
<path fill-rule="evenodd" clip-rule="evenodd" d="M341.331 19.6079C343.547 19.608 345.678 20.4594 347.284 21.9862C347.405 22.1041 347.598 22.1026 347.717 21.9829L348.873 20.8162C348.933 20.7555 348.967 20.6733 348.966 20.5877C348.966 20.5021 348.931 20.4202 348.87 20.3602C344.655 16.3207 338.005 16.3207 333.79 20.3602C333.729 20.4202 333.695 20.502 333.694 20.5876C333.694 20.6732 333.727 20.7555 333.787 20.8162L334.944 21.9829C335.063 22.1028 335.256 22.1043 335.377 21.9862C336.983 20.4593 339.115 19.6079 341.331 19.6079ZM341.331 23.4036C342.548 23.4035 343.722 23.856 344.625 24.6732C344.747 24.7892 344.939 24.7867 345.058 24.6676L346.213 23.5009C346.274 23.4397 346.307 23.3567 346.306 23.2704C346.305 23.1842 346.27 23.1018 346.208 23.0419C343.46 20.4855 339.204 20.4855 336.456 23.0419C336.394 23.1018 336.358 23.1842 336.357 23.2705C336.357 23.3568 336.39 23.4398 336.451 23.5009L337.606 24.6676C337.725 24.7867 337.917 24.7892 338.039 24.6732C338.941 23.8566 340.114 23.4041 341.331 23.4036ZM343.644 25.9574C343.645 26.0439 343.611 26.1273 343.55 26.1879L341.552 28.2036C341.494 28.2628 341.414 28.2961 341.331 28.2961C341.247 28.2961 341.168 28.2628 341.109 28.2036L339.111 26.1879C339.05 26.1272 339.016 26.0438 339.018 25.9573C339.019 25.8708 339.057 25.7889 339.121 25.7309C340.397 24.652 342.265 24.652 343.54 25.7309C343.605 25.7889 343.642 25.8709 343.644 25.9574Z" fill="black"/>
<path fill-rule="evenodd" clip-rule="evenodd" d="M327.667 17.6665H326.667C326.115 17.6665 325.667 18.1142 325.667 18.6665V27.3332C325.667 27.8855 326.115 28.3332 326.667 28.3332H327.667C328.219 28.3332 328.667 27.8855 328.667 27.3332V18.6665C328.667 18.1142 328.219 17.6665 327.667 17.6665ZM322 19.9998H323C323.553 19.9998 324 20.4476 324 20.9998V27.3332C324 27.8855 323.553 28.3332 323 28.3332H322C321.448 28.3332 321 27.8855 321 27.3332V20.9998C321 20.4476 321.448 19.9998 322 19.9998ZM318.334 22.3332H317.334C316.781 22.3332 316.334 22.7809 316.334 23.3332V27.3332C316.334 27.8855 316.781 28.3332 317.334 28.3332H318.334C318.886 28.3332 319.334 27.8855 319.334 27.3332V23.3332C319.334 22.7809 318.886 22.3332 318.334 22.3332ZM313.667 24.3332H312.667C312.115 24.3332 311.667 24.7809 311.667 25.3332V27.3332C311.667 27.8855 312.115 28.3332 312.667 28.3332H313.667C314.219 28.3332 314.667 27.8855 314.667 27.3332V25.3332C314.667 24.7809 314.219 24.3332 313.667 24.3332Z" fill="black"/>
<path d="M40.5146 17.1675C38.2222 17.1675 36.5889 18.7349 36.5889 20.8809V20.8955C36.5889 22.9023 38.0098 24.3818 40.0386 24.3818C41.4888 24.3818 42.4116 23.6421 42.7998 22.8071H42.9463C42.9463 22.8877 42.939 22.9683 42.939 23.0488C42.8584 25.0703 42.1479 26.7109 40.4707 26.7109C39.5405 26.7109 38.8887 26.2275 38.6104 25.4878L38.5884 25.4146H36.728L36.7427 25.4951C37.0796 27.1138 38.5298 28.2637 40.4707 28.2637C43.1294 28.2637 44.7334 26.1543 44.7334 22.5947V22.5801C44.7334 18.7715 42.7705 17.1675 40.5146 17.1675ZM40.5073 22.9316C39.3062 22.9316 38.4346 22.0527 38.4346 20.8296V20.8149C38.4346 19.6357 39.3647 18.7056 40.5293 18.7056C41.7012 18.7056 42.6167 19.6504 42.6167 20.8589V20.8735C42.6167 22.0674 41.7012 22.9316 40.5073 22.9316ZM47.5586 21.1519C48.2324 21.1519 48.7231 20.6392 48.7231 19.9946C48.7231 19.3428 48.2324 18.8374 47.5586 18.8374C46.8921 18.8374 46.394 19.3428 46.394 19.9946C46.394 20.6392 46.8921 21.1519 47.5586 21.1519ZM47.5586 26.5864C48.2324 26.5864 48.7231 26.0811 48.7231 25.4292C48.7231 24.7773 48.2324 24.272 47.5586 24.272C46.8921 24.272 46.394 24.7773 46.394 25.4292C46.394 26.0811 46.8921 26.5864 47.5586 26.5864ZM55.5107 28H57.3198V25.9712H58.7407V24.4111H57.3198V17.4312H54.6465C53.2109 19.6138 51.7095 22.0454 50.3398 24.4258V25.9712H55.5107V28ZM52.0977 24.4551V24.3452C53.123 22.5508 54.3462 20.5952 55.4302 18.9399H55.54V24.4551H52.0977ZM62.6206 28H64.5103V17.4312H62.6279L59.8667 19.3721V21.1519L62.4961 19.2915H62.6206V28Z" fill="black"/>
</g>
<defs>
<clipPath id="clip0_2384_7270">
<rect width="393" height="44" fill="white"/>
</clipPath>
</defs>
</svg>
